<?xml version="1.0" standalone="no"?>
<!DOCTYPE svg PUBLIC "-//W3C//DTD SVG 20010904//EN"
 "http://www.w3.org/TR/2001/REC-SVG-20010904/DTD/svg10.dtd">
<svg version="1.0" xmlns="http://www.w3.org/2000/svg"
 width="1474.000000pt" height="1474.000000pt" viewBox="0 0 1474.000000 1474.000000"
 preserveAspectRatio="xMidYMid meet">

<g transform="translate(0.000000,1474.000000) scale(0.100000,-0.100000)"
fill="#000000" stroke="none">
<path d="M8670 11519 c-1052 -127 -1882 -958 -2005 -2006 -126 -1073 525
-2092 1553 -2432 240 -79 442 -111 712 -111 368 0 686 73 1006 230 696 342
1161 996 1265 1780 18 136 15 440 -5 575 -112 739 -526 1338 -1172 1699 -197
110 -464 203 -709 247 -135 24 -509 35 -645 18z m1519 -574 c107 -79 264 -223
259 -236 -2 -5 -169 -164 -372 -353 l-368 -345 -62 53 c-34 28 -83 67 -109 84
-26 18 -47 35 -47 38 0 6 515 829 532 851 14 17 42 1 167 -92z m-1024 -810
c95 -26 256 -109 339 -175 238 -189 367 -496 336 -800 -42 -401 -340 -731
-728 -806 -98 -19 -274 -18 -370 2 -156 32 -311 115 -434 232 -186 178 -288
411 -288 662 0 431 300 799 730 895 86 19 330 14 415 -10z m-893 -1744 l68
-52 -40 -62 c-21 -34 -144 -229 -272 -433 -201 -322 -235 -371 -251 -362 -83
44 -408 325 -406 351 0 7 168 168 372 358 l372 347 45 -47 c25 -26 75 -71 112
-100z"/>
<path d="M8843 9769 c-102 -17 -220 -79 -290 -151 -17 -18 -48 -60 -68 -93
-127 -213 -97 -472 76 -646 78 -79 161 -123 276 -146 70 -15 93 -16 165 -5
251 36 438 236 455 486 10 157 -39 288 -153 403 -81 82 -157 124 -270 148 -76
16 -113 17 -191 4z"/>
<path d="M3730 10485 l0 -555 -555 0 -555 0 0 -685 0 -685 554 0 555 0 4 -757
3 -758 26 -105 c46 -184 97 -308 186 -445 238 -370 626 -596 1080 -629 l72 -5
0 1350 0 1349 555 0 555 0 0 685 0 685 -555 0 -555 0 0 555 0 555 -685 0 -685
0 0 -555z"/>
<path d="M11604 9640 c-62 -25 -99 -130 -98 -275 2 -205 92 -325 244 -325 68
0 125 25 168 74 40 46 62 90 96 194 27 81 46 112 69 112 57 -1 75 -117 36
-232 -20 -60 -20 -61 -1 -80 10 -11 38 -22 60 -25 54 -7 87 14 115 75 19 40
22 65 22 172 0 109 -3 131 -23 175 -43 94 -114 144 -205 145 -122 0 -184 -61
-252 -255 -44 -124 -63 -143 -115 -115 -49 26 -46 166 4 257 29 52 24 73 -24
98 -32 17 -64 18 -96 5z"/>
<path d="M12143 8980 c-22 -9 -23 -15 -23 -105 l0 -95 -259 0 c-277 0 -316 -5
-332 -47 -10 -27 -12 -143 -3 -167 5 -14 41 -16 300 -16 l294 0 0 -83 c0 -57
5 -89 15 -104 19 -27 75 -37 125 -22 l40 12 0 294 0 294 -25 24 c-26 27 -87
33 -132 15z"/>
<path d="M11134 8170 c-131 -265 -267 -454 -474 -660 -198 -198 -386 -332
-647 -462 l-163 -81 0 -696 c0 -434 -4 -730 -11 -786 -48 -400 -355 -724 -753
-794 -76 -14 -222 -14 -306 0 -295 47 -570 266 -691 549 -35 84 -69 230 -69
303 l0 47 -685 0 -685 0 0 -67 c0 -278 100 -674 242 -957 475 -947 1560 -1446
2588 -1190 428 106 783 313 1101 640 330 341 534 758 616 1265 15 93 17 245
20 1454 2 743 2 1406 1 1475 l-3 125 -81 -165z"/>
<path d="M11718 8216 c-134 -36 -210 -153 -212 -326 -1 -158 53 -263 161 -317
l58 -28 245 -3 c135 -2 259 -1 277 3 42 8 63 47 63 117 0 106 26 96 -280 100
-255 3 -270 4 -297 24 -15 12 -34 38 -42 59 -13 32 -13 43 0 78 8 22 27 50 42
61 27 20 45 21 282 26 222 4 257 7 271 22 20 19 30 107 20 163 l-7 35 -267 -1
c-182 0 -282 -4 -314 -13z"/>
<path d="M11572 7355 c-44 -37 -57 -97 -57 -265 1 -181 18 -235 104 -321 73
-73 142 -100 266 -107 214 -10 357 80 412 263 22 73 24 282 4 361 -24 99 -5
94 -376 94 l-323 0 -30 -25z m563 -271 c0 -60 -4 -77 -27 -111 -35 -53 -85
-76 -177 -81 -85 -5 -137 8 -181 44 -46 40 -60 74 -60 154 l0 70 223 -2 222
-3 0 -71z"/>
<path d="M5440 6545 l0 -685 1291 0 1292 0 -7 91 c-49 643 -511 1156 -1140
1264 -73 12 -204 15 -762 15 l-674 0 0 -685z"/>
<path d="M11563 6520 c-34 -14 -44 -44 -41 -128 l3 -77 366 -3 c427 -3 409 -7
417 91 2 31 1 72 -2 92 l-7 35 -357 -1 c-196 0 -367 -4 -379 -9z"/>
<path d="M11791 6164 c-160 -43 -256 -152 -283 -321 -28 -182 59 -363 208
-429 226 -100 497 -8 575 194 43 112 36 269 -16 372 -79 156 -290 236 -484
184z m221 -224 c44 -13 93 -52 113 -91 8 -15 15 -50 15 -77 0 -62 -29 -108
-90 -142 -38 -21 -58 -24 -135 -25 -74 0 -98 4 -137 23 -141 70 -121 267 32
310 47 14 156 14 202 2z"/>
<path d="M11595 5323 c-93 -24 -121 -147 -49 -214 21 -20 36 -24 86 -24 55 0
62 3 89 33 23 26 29 42 29 78 0 78 -31 114 -110 128 -14 2 -34 2 -45 -1z"/>
</g>
</svg>
